HIERARCHY
ROOT Hips
{
	OFFSET -14.64140 90.27770 -84.91600
	CHANNELS 6 Xposition Yposition Zposition Zrotation Xrotation Yrotation
	JOINT Spine
	{
		OFFSET 0.00000 13.20850 -1.60436
		CHANNELS 3 Zrotation Xrotation Yrotation
		JOINT Spine1
		{
			OFFSET 0.00000 8.61716 0.00000
			CHANNELS 3 Zrotation Xrotation Yrotation
			JOINT Spine2
			{
				OFFSET 0.00000 8.61717 0.00000
				CHANNELS 3 Zrotation Xrotation Yrotation
				JOINT Spine3
				{
					OFFSET 0.00000 8.61717 0.00000
					CHANNELS 3 Zrotation Xrotation Yrotation
					JOINT Neck
					{
						OFFSET 0.00000 11.07920 1.10792
						CHANNELS 3 Zrotation Xrotation Yrotation
						JOINT Neck1
						{
							OFFSET 0.00000 7.08032 0.00000
							CHANNELS 3 Zrotation Xrotation Yrotation
							JOINT Head
							{
								OFFSET 0.00000 7.08031 0.00000
								CHANNELS 3 Zrotation Xrotation Yrotation
								End site
								{
									OFFSET 0.00000 0.00000 0.00000
								}
							}
						}
					}
					JOINT RightShoulder
					{
						OFFSET -0.01000 7.91373 5.19711
						CHANNELS 3 Zrotation Xrotation Yrotation
						JOINT RightArm
						{
							OFFSET -18.41580 0.00000 0.00000
							CHANNELS 3 Zrotation Xrotation Yrotation
							JOINT RightForeArm
							{
								OFFSET -29.11090 0.00000 0.00000
								CHANNELS 3 Zrotation Xrotation Yrotation
								JOINT RightHand
								{
									OFFSET -24.65040 0.00000 0.00000
									CHANNELS 3 Zrotation Xrotation Yrotation
									JOINT RightHandThumb1
									{
										OFFSET -5.35114 -0.85590 3.97906
										CHANNELS 3 Zrotation Xrotation Yrotation
										JOINT RightHandThumb2
										{
											OFFSET -4.52789 0.00000 0.00000
											CHANNELS 3 Zrotation Xrotation Yrotation
											JOINT RightHandThumb3
											{
												OFFSET -2.46976 0.00000 0.00000
												CHANNELS 3 Zrotation Xrotation Yrotation
												End site
												{
													OFFSET 0.00000 0.00000 0.00000
												}
											}
										}
									}
									JOINT RightHandIndex1
									{
										OFFSET -14.26970 0.00000 2.88139
										CHANNELS 3 Zrotation Xrotation Yrotation
										JOINT RightHandIndex2
										{
											OFFSET -5.48836 0.00000 0.00000
											CHANNELS 3 Zrotation Xrotation Yrotation
											JOINT RightHandIndex3
											{
												OFFSET -3.01859 0.00000 0.00000
												CHANNELS 3 Zrotation Xrotation Yrotation
												End site
												{
													OFFSET 0.00000 0.00000 0.00000
												}
											}
										}
									}
									JOINT RightHandMiddle1
									{
										OFFSET -14.26970 0.00000 -0.09147
										CHANNELS 3 Zrotation Xrotation Yrotation
										JOINT RightHandMiddle2
										{
											OFFSET -6.17441 0.00000 0.00000
											CHANNELS 3 Zrotation Xrotation Yrotation
											JOINT RightHandMiddle3
											{
												OFFSET -3.56743 0.00000 0.00000
												CHANNELS 3 Zrotation Xrotation Yrotation
												End site
												{
													OFFSET 0.00000 0.00000 0.00000
												}
											}
										}
									}
									JOINT RightHandRing1
									{
										OFFSET -12.69180 0.00000 -3.06433
										CHANNELS 3 Zrotation Xrotation Yrotation
										JOINT RightHandRing2
										{
											OFFSET -5.62556 0.00000 0.00000
											CHANNELS 3 Zrotation Xrotation Yrotation
											JOINT RightHandRing3
											{
												OFFSET -3.56744 0.00000 0.00000
												CHANNELS 3 Zrotation Xrotation Yrotation
												End site
												{
													OFFSET 0.00000 0.00000 0.00000
												}
											}
										}
									}
									JOINT RightHandPinky1
									{
										OFFSET -11.11390 0.00000 -6.03719
										CHANNELS 3 Zrotation Xrotation Yrotation
										JOINT RightHandPinky2
										{
											OFFSET -4.52789 0.00000 0.00000
											CHANNELS 3 Zrotation Xrotation Yrotation
											JOINT RightHandPinky3
											{
												OFFSET -2.46976 0.00000 0.00000
												CHANNELS 3 Zrotation Xrotation Yrotation
												End site
												{
													OFFSET 0.00000 0.00000 0.00000
												}
											}
										}
									}
								}
							}
						}
					}
					JOINT LeftShoulder
					{
						OFFSET 0.01000 7.91373 5.19711
						CHANNELS 3 Zrotation Xrotation Yrotation
						JOINT LeftArm
						{
							OFFSET 18.41580 0.00000 0.00000
							CHANNELS 3 Zrotation Xrotation Yrotation
							JOINT LeftForeArm
							{
								OFFSET 29.11090 0.00000 0.00000
								CHANNELS 3 Zrotation Xrotation Yrotation
								JOINT LeftHand
								{
									OFFSET 24.65040 0.00000 0.00000
									CHANNELS 3 Zrotation Xrotation Yrotation
									JOINT LeftHandThumb1
									{
										OFFSET 5.35114 -0.85590 3.97906
										CHANNELS 3 Zrotation Xrotation Yrotation
										JOINT LeftHandThumb2
										{
											OFFSET 4.52789 0.00000 0.00000
											CHANNELS 3 Zrotation Xrotation Yrotation
											JOINT LeftHandThumb3
											{
												OFFSET 2.46977 0.00000 0.00000
												CHANNELS 3 Zrotation Xrotation Yrotation
												End site
												{
													OFFSET 0.00000 0.00000 0.00000
												}
											}
										}
									}
									JOINT LeftHandIndex1
									{
										OFFSET 14.26970 0.00000 2.88139
										CHANNELS 3 Zrotation Xrotation Yrotation
										JOINT LeftHandIndex2
										{
											OFFSET 5.48836 0.00000 0.00000
											CHANNELS 3 Zrotation Xrotation Yrotation
											JOINT LeftHandIndex3
											{
												OFFSET 3.01859 0.00000 0.00000
												CHANNELS 3 Zrotation Xrotation Yrotation
												End site
												{
													OFFSET 0.00000 0.00000 0.00000
												}
											}
										}
									}
									JOINT LeftHandMiddle1
									{
										OFFSET 14.26970 0.00000 -0.09147
										CHANNELS 3 Zrotation Xrotation Yrotation
										JOINT LeftHandMiddle2
										{
											OFFSET 6.17440 0.00000 0.00000
											CHANNELS 3 Zrotation Xrotation Yrotation
											JOINT LeftHandMiddle3
											{
												OFFSET 3.56744 0.00000 0.00000
												CHANNELS 3 Zrotation Xrotation Yrotation
												End site
												{
													OFFSET 0.00000 0.00000 0.00000
												}
											}
										}
									}
									JOINT LeftHandRing1
									{
										OFFSET 12.69180 0.00000 -3.06433
										CHANNELS 3 Zrotation Xrotation Yrotation
										JOINT LeftHandRing2
										{
											OFFSET 5.62556 0.00000 0.00000
											CHANNELS 3 Zrotation Xrotation Yrotation
											JOINT LeftHandRing3
											{
												OFFSET 3.56744 0.00000 0.00000
												CHANNELS 3 Zrotation Xrotation Yrotation
												End site
												{
													OFFSET 0.00000 0.00000 0.00000
												}
											}
										}
									}
									JOINT LeftHandPinky1
									{
										OFFSET 11.11390 0.00000 -6.03719
										CHANNELS 3 Zrotation Xrotation Yrotation
										JOINT LeftHandPinky2
										{
											OFFSET 4.52789 0.00000 0.00000
											CHANNELS 3 Zrotation Xrotation Yrotation
											JOINT LeftHandPinky3
											{
												OFFSET 2.46976 0.00000 0.00000
												CHANNELS 3 Zrotation Xrotation Yrotation
												End site
												{
													OFFSET 0.00000 0.00000 0.00000
												}
											}
										}
									}
								}
							}
						}
					}
					JOINT pCube4
					{
						OFFSET 0.00000 10.91090 1.10792
						CHANNELS 3 Zrotation Xrotation Yrotation
						End site
						{
							OFFSET 0.00000 0.00000 0.00000
						}
					}
				}
			}
		}
	}
	JOINT RightUpLeg
	{
		OFFSET -9.98441 0.00000 0.00000
		CHANNELS 3 Zrotation Xrotation Yrotation
		JOINT RightLeg
		{
			OFFSET 0.00000 -42.11790 0.00000
			CHANNELS 3 Zrotation Xrotation Yrotation
			JOINT RightFoot
			{
				OFFSET 0.00000 -45.00020 -0.00001
				CHANNELS 3 Zrotation Xrotation Yrotation
				JOINT RightForeFoot
				{
					OFFSET 0.00000 -3.74820 0.00000
					CHANNELS 3 Zrotation Xrotation Yrotation
					JOINT RightToeBase
					{
						OFFSET 0.00000 0.06325 14.43120
						CHANNELS 3 Zrotation Xrotation Yrotation
						End site
						{
							OFFSET 0.00000 0.00000 0.00000
						}
					}
				}
			}
		}
	}
	JOINT LeftUpLeg
	{
		OFFSET 9.98441 0.00000 0.00000
		CHANNELS 3 Zrotation Xrotation Yrotation
		JOINT LeftLeg
		{
			OFFSET 0.00000 -42.11800 0.00000
			CHANNELS 3 Zrotation Xrotation Yrotation
			JOINT LeftFoot
			{
				OFFSET 0.00000 -45.00070 0.00000
				CHANNELS 3 Zrotation Xrotation Yrotation
				JOINT LeftForeFoot
				{
					OFFSET 0.00000 -3.74824 0.00000
					CHANNELS 3 Zrotation Xrotation Yrotation
					JOINT LeftToeBase
					{
						OFFSET 0.00000 0.06325 14.43110
						CHANNELS 3 Zrotation Xrotation Yrotation
						End site
						{
							OFFSET 0.00000 0.00000 0.00000
						}
					}
				}
			}
		}
	}
}
MOTION
Frames: 4
Frame Time: 0.050000
0.03750029536511127 0.028185714869128877 -0.046993202608746225 0.005488691640740365 0.020975918015030917 -0.022755866018338573 5.525720809878975 3.5404126771039843 -2.207212190025005 -0.7395100316814729 3.661216818338948 0.3446069389918128 -0.5674795849825528 -1.0751254964849013 0.9559397231866105 -0.5473502350320368 -0.29553432082436293 -0.21130747892575755 -0.08013750475864559 12.699835157164348 -1.177436447625776 0.3616554355126256 -0.7382830827205169 -2.21322764791912 0.8930156223938196 -17.518520789092875 -0.21501255692828247 -9.982108876942656 3.4443088065306826 -17.941358349543286 83.87062232231077 8.699980394036976 2.1002799332421693 -4.257839115850139 7.309507816742624 44.18576389577568 17.603574459878153 -0.25170727468156684 -2.7222689411363725 4.544410677834493 -0.1293047264619832 -1.6239155520166888 0.03243295001462274 -0.008742111806144107 -56.22717494400252 -0.03767240268262077 0.016178002747427197 -56.23660472909764 -38.7345564963964 0.005262833593424636 0.006798727209760014 -0.034239166745935024 -0.011789597643694657 0.014835128771063653 0.03442147965051671 -0.03803944848771926 0.013176764389800375 -36.69993408087566 -0.009874229341365788 -0.04227997296336168 0.024495429324959354 0.03752940523113288 0.01842612107597469 -0.01321866768335519 -0.022618013485892267 0.009551622252796186 -19.779978350346823 -0.0479497556877733 -0.02789189514985528 -0.019628187625338356 0.018325987460246704 -0.025989587949667877 -0.0043942110033191074 0.02036343796939832 0.028541868388824866 24.071977790164606 0.04284948577288812 0.0007631428407567634 28.896381416496748 -0.02311581273701937 -0.0033549283762062815 28.823649796940447 -0.010471529144115792 -0.023503591828351354 10.11398337714735 2.4717423987294618 15.224863366822527 -78.46524629883484 17.678096077411105 -12.638648621172308 2.1884353366769584 7.166907258612372 -45.82386202450239 -18.898957452929693 -0.8164606129482863 0.827444966526371 -0.47226935048964047 0.03168302916722329 -8.097197342240635 0.022205363366145998 -0.020077857691920737 44.59300628446676 -0.0066874946078249375 -0.015232260520714266 44.552627860397614 12.459571078478575 -0.04640220098166126 -0.025157283383675413 -0.04777575171248475 -0.0098283617788787 -0.00456137372646082 0.03887260043840701 0.030132183840892838 -0.019121349689565838 11.10851493009217 -0.029977333843667495 0.048182313793106994 -0.019878866102616598 -0.03060397649892498 -0.029934296170566265 -0.006698317606266678 -0.03153180136360104 0.047099276241263664 4.766285845092921 -0.0499015538047986 -0.04998624752137487 -0.012019514971857794 -0.02017550153371596 0.034245958747098904 -0.01606025548226466 0.04850542802487188 0.002895735072020995 -5.569608379253509 0.045734399481970736 0.021640640444331425 -6.713157887494843 -0.023647883005930057 -0.02146129143497405 -6.7702564781324375 -0.044691957838217174 -0.015314027823223988 -0.001776481430556137 0.032480836687118105 -0.032829110310304534 8.047948480032739 3.4652969422868973 -19.214075281830343 0.028375393669624473 10.43879357519364 0.006636782843477764 -5.634219370875491 -15.627122630641596 3.2239489994990187 0.0067281731601794535 -0.026173290259238684 -0.026519256273621703 -0.017592679574477077 4.723230742886858 -0.005826277955223574 12.503197410617528 -8.226162267651718 6.85789056945565 -0.0004019083977484301 46.364452326864594 -0.009432317179843752 -4.295906892649313 -14.748650026649301 -3.8823793360106875 0.03830358945013688 0.028805475010733002 -0.02363471389023112 0.009304392967019966 -10.738971696818869 0.017303547208145358 
-0.046716208604193774 0.03225648618403797 0.020668164760980504 -0.040793145397246953 0.02462731996565641 0.023958261855430128 5.573915251454778 3.4693218080912955 -2.2651552536750095 -0.7627001585072783 3.6545279626144165 0.4142625231033748 -0.5753079569413275 -1.1203334762184982 0.8043932057145706 -0.5962307495108523 -0.32774548151263827 -0.23932483660159307 -0.2683504514401055 13.027053509947555 -0.9425990194993632 0.39137783497621703 -0.644968134859183 -1.6237654272370534 0.8049973046047078 -17.461329901432777 -0.15503318389476267 -10.079010325206312 3.5165109849837415 -17.975045796377735 83.83388870158272 8.44601166783202 2.488513268338867 -4.189502187256219 7.498965056556222 44.35767472268205 17.758595889769293 -0.2581633261420135 -2.505424128870737 4.557629998733049 -0.09837662434252456 -1.5742874296526537 0.03763078705626224 0.021105244093338586 -56.2744690291357 0.028200727426244916 0.01842959356756742 -56.2262814979951 -38.74281067565116 -0.002837501005039695 0.028855411262279904 0.0004914512672609318 -0.0036168347789793773 -0.0059976526742275705 0.01792362911340013 -0.04459991738887089 -0.03975375498764856 -36.70601770285488 -0.01345493243243908 -0.01396443301303027 0.018453706003118468 0.041441433161045205 -0.032835454482567424 -0.020709931512213998 -0.02593318740577403 -0.02424564094763782 -19.75432513421468 0.039604847821154976 -0.010913744700622662 0.010065393056656163 0.03038137480656723 0.036756015753956386 0.03605907854029303 0.04601082769385104 0.01112998427362753 24.019257886826363 -0.021505359479919845 0.004826640084537617 28.893204242156216 0.02673227962999646 -0.043226486079354046 28.902911337790623 -0.00043284715820830907 -0.011015680873870918 10.883468867250462 2.538336536348169 15.461576786604478 -79.100445079228 15.657909376884051 -16.680204039879833 0.5933444857209296 9.435464555914514 -50.807100247620184 -18.056867820496233 -0.3910105033141162 0.14061385082582278 -0.45662994858686234 0.1000798197032435 -8.108924762509938 -0.002748446378051869 -0.04565013401465415 44.59146001431402 -0.04900615362418435 0.04344290699476227 44.542834550318325 12.49902286087709 -0.015886462460240766 0.035343082173827076 0.028175603456353844 -0.0236343412474696 -0.037341255804757216 -0.023308763190829165 -0.02319537840468725 -0.01534085102858913 11.13517445145214 -0.027720411342871454 0.0032922626724495767 -0.0038459778595937365 -0.011775488005270205 -0.02037296590919364 -0.014817207540954669 0.02411861622300906 0.038690380902557046 4.7596650837742045 -0.011950969221068503 0.018089260904060853 0.007630974309250382 -0.04365978684772564 0.026740771241294075 -0.02187356073697115 0.00889031628921506 -0.006784841325266983 -5.63966246677707 0.009316820402301803 -0.01170053192733512 -6.718698691642796 -0.0023634808865001787 0.026443109058710272 -6.677519896685375 0.003053448437637371 0.011176582023777228 -0.048030672743698294 0.01437366352242542 0.016617690867218142 8.027094393249055 3.4556990629141606 -19.18844744208307 0.032815768091247005 10.411252259705561 0.043210262533940565 -5.645776647998281 -15.709882211579645 3.1813264665987964 0.010582838763826985 -0.018701959617249738 0.046887543205363806 0.02441820383045392 4.657313008410804 0.048544805641711826 12.461840150680013 -8.261374337336438 6.930753256035111 0.042258346118683676 46.382002965021364 -0.022898001424216774 -4.350324597340292 -14.716152856755723 -3.841823439276665 -0.00023142003741720947 0.003299276735545462 -0.044399602539931755 1.9047339987161284e-05 -10.711443340256967 -0.01694863546300143 
-0.04842150199072054 0.03718296062466939 0.022304761871815695 -0.0309207500060249 0.021167816960962045 -0.03279862627108598 5.603960246656529 3.3653322455318353 -2.2200654134290416 -0.7835396541654976 3.7125471341968423 0.3641678226914082 -0.4991113792124448 -1.1521608782030857 0.7021367081474621 -0.563108183717093 -0.3991681806557431 -0.2881102233076569 -0.5170062934368302 13.443119416860638 -0.8997349782318763 0.41285346275067464 -0.5903538424957575 -1.1037067823420532 0.718660659304768 -17.35485232116487 -0.1860641814335527 -10.25055587190375 3.501942087558588 -18.058503761394512 83.80469292047758 8.025370710400411 2.8042822513578556 -4.117441191322727 7.6245651832181345 44.3103358091534 17.862441494532654 -0.250264050413576 -2.3816478981614946 4.517544824806097 -0.08771448555519576 -1.5466680068046845 0.039561346353024544 0.010526329960994297 -56.241983247073215 -0.030899340076458004 0.045567061007339746 -56.21835428673263 -38.77282386085893 -0.023026597922344762 0.009947972585140682 0.011594487607542876 -0.010975173612684462 -0.009330643018239135 -0.030330695230432345 -0.005883136261365187 0.0007534401021324016 -36.74301034632374 0.03844379570094348 0.003285824592162774 0.011106673418077284 0.03516504772569771 0.036448357284295414 0.01562600597461642 0.03513163108194837 0.03023657063656197 -19.74568132069596 -0.020196487468960286 -0.014587841647747915 -0.017483319664755966 0.04596372728262379 0.040474233532951084 -0.02076514727255921 0.035053449886818785 0.010647843473893002 24.036353023883827 0.013174267470154235 0.013231885256622186 28.828036215053555 0.020959716134780156 -0.007048696401786318 28.820412511614876 -0.019761737743686614 -0.04953562879637617 11.704572755430446 2.6674769747522564 15.706379105258478 -79.6260259360195 13.022286181147646 -21.302409354175378 -0.882801473416143 11.65048602525165 -56.28148846927989 -16.94045006814318 0.38482232842227854 -0.7907237008999697 -0.45475956893835423 0.050019140741488874 -8.122195252534835 -0.001321782475834262 0.035791660093176435 44.571318533785984 -0.04369583534779825 0.001328442104575331 44.565337088264954 12.501379642644379 0.044704923535003646 0.014478469437925818 0.0248927848856767 0.015622374243174543 0.026920978298368262 -0.008267133228301906 -0.006527556395762217 0.012955402954116096 11.1378150697047 0.010839434712196963 -0.025733284533613503 -0.03683791228332347 0.012391045550586325 -0.049624170233974266 0.001126251861014406 0.002987040356395492 -0.005223398024413099 4.724645430185068 0.024958276470191342 -0.032752195242732686 -0.010503520274471486 0.010594044477032142 -0.031348582192776704 -0.03007589907235877 0.002082068462787183 0.03572414765451574 -5.585532345172928 -0.03837038609880175 0.04481147505207745 -6.746946013491809 0.004252616889910925 0.0205889776730737 -6.692450506870645 0.04546818295897258 -0.0022386794362812996 0.03486476667902509 0.005854679408147901 -0.004662230771872217 8.093644233585737 3.4514713781192397 -19.235960100463966 -0.0012967773070709499 10.402561016846313 0.05732468090704433 -5.614723496873553 -15.663174186416118 3.153738426407421 0.01540164643448583 0.024063199882236454 -0.008848217798298487 0.02744952222784288 4.667330475833786 0.022854520487221967 12.478823669622674 -8.233105677799555 6.884942300959168 -0.0037575962158352353 46.418165964909065 0.041716187000074914 -4.297989072997417 -14.739760093918086 -3.8218229275783475 0.04106615685205588 -0.025245696601959418 -0.026703211786579348 0.04636109960809864 -10.716429224783209 -0.03029514854011488 
0.01818226184610404 0.004443054116030301 0.023172095399410387 -0.015732607391676826 0.009457527092398364 -0.04423089783655791 5.6031903542392305 3.2662568552734093 -2.284806665108324 -0.79275281393434 3.702766822083414 0.40954708954048485 -0.46971954732778576 -1.1645047937292008 0.5535280352514108 -0.5539405564196886 -0.39974002111501 -0.25116528050619913 -0.6150086324270017 13.617558122286166 -0.8147828601265263 0.3640283325467765 -0.5393170734461826 -0.7814951212683661 0.6367772160764793 -17.307799054767035 -0.09205783893986497 -10.221241255659466 3.5233266638019387 -17.963334015070767 83.7400903893139 7.877663762930687 2.816238484467304 -4.049712579787689 7.69856730039997 44.00468272110444 17.902811164280525 -0.21267766441553676 -2.211839884696996 4.544716523939846 -0.12106152703922951 -1.6380630489966674 -0.03807871394504512 -0.01356185398292116 -56.21731322909123 0.035280747799493306 -0.0047067003590646975 -56.21405284995133 -38.78120683264165 0.006389593404993003 0.04091459105919099 0.035174594382540926 0.0068447636331831815 -0.026227749272235774 -0.03715882443468936 -0.041702107506008494 0.012018295529469245 -36.66474286300834 -0.028343250108477838 -0.001567656311118335 0.022170785960047304 -0.024102239064413434 -0.049231125719894984 -0.0490707765673184 0.0418720292579477 -0.008046748421353651 -19.771684938215213 0.023279896139406328 0.037772046419109265 0.040833138190922394 -0.004351907092262965 0.005075882470932468 0.027249627504212028 0.042894460899459586 -0.010331128295140405 24.10253244774039 -0.01893982978656188 0.02974507659471903 28.87026005974545 0.045669019254638996 0.0038827995409469397 28.890595512580777 -0.03651858355820185 -0.03770361359026268 12.293793390776578 2.811568723770402 15.782223766465702 -79.81446880430221 10.999406758222596 -24.681171025535765 -1.7149316368520373 13.151782052728489 -60.53198119118334 -15.748908698450768 1.0436787250676065 -1.634659047807234 -0.5086408821350579 0.053680714733276014 -8.130660743463762 0.013769442810419062 0.0017449178597782333 44.58300481862897 -0.010519415202820298 -0.03983917835865227 44.61359282621357 12.433563292242374 -0.039213979258488824 0.037224465591628224 0.04872430738733326 0.0031837136925511986 -0.03669838491475792 -0.0013375735049275317 0.006618927634866159 0.03323853910634504 11.075863179550751 0.03494278858531854 0.03902460821177186 -0.0017561806524993438 -0.04902618764434857 -0.02288401340091902 0.02464647317495268 -0.03154605750010824 0.009835808172168418 4.777937429510862 -0.009203264739539108 -0.040674544340222364 -0.02302490733233801 0.020045686099535165 0.017374493665207557 -0.012257854275651703 0.01381156738552562 0.04426592579662647 -5.597010471825224 0.009752461442640874 0.02379056414764258 -6.748138345049554 -0.010977947017368494 0.006508417309091398 -6.705183364538603 -0.02186995997659965 0.036543007885700536 -0.045096993138618424 0.008445838827546884 -0.028142984522909576 8.001386080747277 3.5374876663808354 -19.203021606406914 -0.02594024813072911 10.360455233038799 -0.01939055783465574 -5.638050308102758 -15.630657869009886 3.184005190088729 -0.01756689046814309 0.022568166550937716 -0.015551350752658389 -0.04852067232127951 4.691391623331361 0.015516132193008665 12.488231152072604 -8.215255806939208 6.904425798612518 0.037001067296361156 46.33115232301518 0.010458695062714279 -4.341012303189107 -14.774637248635237 -3.875068632945286 -0.04782817178968475 0.017300422696391704 0.03473798819534559 0.008426295309781368 -10.723642580147398 0.048758299419684736 
